<svg xmlns="http://www.w3.org/2000/svg" viewBox="0 0 30 30"><defs><style>.cls-1{fill:#ff783d;}.cls-2{fill:#f3f3f3;}</style></defs><title>profile iconAsset 16</title><g id="Layer_2" data-name="Layer 2"><g id="Layer_1-2" data-name="Layer 1"><path class="cls-1" d="M28.82,9.16A15,15,0,1,0,30,15,15.08,15.08,0,0,0,28.82,9.16ZM26.08,23.6c-.13-.86.6-2.69.18-3.5a9.19,9.19,0,0,0-2.41-2.94,11.4,11.4,0,0,0-3.54-2,20.21,20.21,0,0,0-10.62,0,11.4,11.4,0,0,0-3.54,2A9.19,9.19,0,0,0,3.74,20.1c-.42.81.31,2.64.18,3.5a14,14,0,1,1,22.16,0Z"/><path class="cls-1" d="M22,8.27A7,7,0,1,1,10.05,3.32,7,7,0,0,1,22,8.27Z"/><path class="cls-2" d="M15,1A14,14,0,0,0,3.92,23.6a8,8,0,0,1,.82-2.5,9.19,9.19,0,0,1,2.41-2.94,11.4,11.4,0,0,1,3.54-2,13.44,13.44,0,0,1,8.62,0,11.4,11.4,0,0,1,3.54,2,9.19,9.19,0,0,1,2.41,2.94,8,8,0,0,1,.82,2.5A14,14,0,0,0,15,1Zm4.46,11.76a6.31,6.31,0,1,1-8.92-8.92A6.31,6.31,0,0,1,21.31,8.27,6.28,6.28,0,0,1,19.46,12.73Z"/></g></g></svg>