<svg id="BELL" xmlns="http://www.w3.org/2000/svg" width="20.841" height="30.316" viewBox="0 0 20.841 30.316">
  <path id="Path_12" data-name="Path 12" d="M29.584,36.98a.946.946,0,0,0-.947.947,1.812,1.812,0,0,1-3.6,0,.947.947,0,0,0-1.895,0,3.7,3.7,0,0,0,7.386,0A.947.947,0,0,0,29.584,36.98Z" transform="translate(-16.418 -11.097)" fill="#ff783d"/>
  <path id="Path_13" data-name="Path 13" d="M35.939,25.953H34.468V22.365a7.672,7.672,0,0,0-7.054-7.25v-.737a2.453,2.453,0,0,0,1.624-2.271,2.574,2.574,0,0,0-5.142,0,2.453,2.453,0,0,0,1.624,2.271v.737a7.681,7.681,0,0,0-7.054,7.211c0,.026,0,2.3,0,3.627H16.991a.947.947,0,0,0-.947.947c0,4.431,1.505,6.972,4.129,6.972H32.756c4.13,0,4.13-5.247,4.13-6.972A.946.946,0,0,0,35.939,25.953Zm-9.474-14.4a.633.633,0,0,1,.676.553.69.69,0,0,1-1.353,0A.633.633,0,0,1,26.465,11.554ZM20.358,22.367c.054-2.985,2.793-5.415,6.107-5.415s6.067,2.439,6.107,5.427v3.574H20.357C20.357,24.651,20.357,22.457,20.358,22.367Zm12.4,9.611H20.173c-1.667,0-2.094-2.6-2.2-4.13h17C34.858,30.73,34.177,31.978,32.757,31.978Z" transform="translate(-16.044 -9.659)" fill="#ff783d"/>
</svg>
