<svg xmlns="http://www.w3.org/2000/svg" width="26.687" height="20.85" viewBox="0 0 26.687 20.85">
  <path id="CART" d="M36.825,12.906l-5,.968a.833.833,0,0,0-.675.818v3.367H11.965a.833.833,0,0,0-.687,1.305l4.61,6.717a.835.835,0,0,0,.687.363h13.58l.005,1.851H18.637c-.013,0-.024.007-.038.008s-.048-.008-.073-.008a2.723,2.723,0,1,0,2.654,2.722,2.766,2.766,0,0,0-.208-1.054h6.856a2.766,2.766,0,0,0-.208,1.054,2.654,2.654,0,1,0,5.307,0,2.736,2.736,0,0,0-1.1-2.195l-.006-2.377h.157a.833.833,0,0,0,.834-.834V18.893c0-.023-.012-.043-.013-.066s.013-.043.013-.066V15.38l4.328-.838a.833.833,0,1,0-.319-1.636Zm-18.3,19.166a1.057,1.057,0,1,1,.986-1.055A1.024,1.024,0,0,1,18.527,32.071Zm11.748,0a1.057,1.057,0,1,1,.986-1.055A1.023,1.023,0,0,1,30.275,32.071ZM13.549,19.727h17.6v5.05H17.015Z" transform="translate(-11.131 -12.889)" fill="#ff783d"/>
</svg>
