<svg id="ICON_PACK_VOL._1" data-name="ICON PACK VOL. 1" xmlns="http://www.w3.org/2000/svg" width="42.368" height="50.074" viewBox="0 0 42.368 50.074">
  <path id="Path_217" data-name="Path 217" d="M42.312,176.128a6,6,0,0,0-7.346-5.046c0-.587-.01-1.177-.01-1.772H.073a.68.68,0,0,0-.035.137A32.862,32.862,0,0,0,.93,179.1a18.154,18.154,0,0,0,9,11.836,1.637,1.637,0,0,0,.752.215q6.8.015,13.6-.008a1.4,1.4,0,0,0,.645-.167,17.96,17.96,0,0,0,5.779-4.884c.824-.147,1.61-.282,2.385-.465a14.819,14.819,0,0,0,6.42-3A7.039,7.039,0,0,0,42.312,176.128Zm-4.376,4.533a10.921,10.921,0,0,1-5.034,2.379q-.187.04-.36.09a19.957,19.957,0,0,0,.914-2.167,26.98,26.98,0,0,0,1.422-7.235,9.187,9.187,0,0,1,.957-.215,3.467,3.467,0,0,1,4,3.281A4.743,4.743,0,0,1,37.936,180.661Z" transform="translate(-0.004 -141.086)" fill="#ff783d"/>
  <path id="Path_218" data-name="Path 218" d="M113.725,11.4a10.522,10.522,0,0,1,.453,4.921c-.15.89-.432,1.757-.65,2.617a7.967,7.967,0,0,0,2.1-2.237,6.522,6.522,0,0,0,.583-5.359c-.443-1.567-1.032-3.1-1.592-4.628A18,18,0,0,1,113.267,1.7c-.033-.523,0-1.049,0-1.7-.315.508-.6.914-.825,1.347a6.639,6.639,0,0,0-.3,5.124C112.624,8.127,113.215,9.752,113.725,11.4Z" transform="translate(-93.14 0)" fill="#ff783d"/>
  <path id="Path_219" data-name="Path 219" d="M87.505,81.178a2.011,2.011,0,0,0-.062-.2,7.453,7.453,0,0,1-.462-5.668c.418-1.367.967-2.694,1.464-4.036a8.456,8.456,0,0,0,.7-3.4,5.105,5.105,0,0,0-1.524-3.269c.03.333.063.582.07.833a9.176,9.176,0,0,1-.837,3.732c-.63,1.535-1.324,3.046-1.917,4.593a6.117,6.117,0,0,0-.325,3.9A6.333,6.333,0,0,0,87.505,81.178Z" transform="translate(-70.348 -53.839)" fill="#ff783d"/>
</svg>
