<svg xmlns="http://www.w3.org/2000/svg" width="46.042" height="57.438" viewBox="0 0 46.042 57.438">
  <g id="Layer_2" data-name="Layer 2" transform="translate(-0.041 0.001)">
    <g id="ICON_PACK_VOL._1" data-name="ICON PACK VOL. 1" transform="translate(0.041 -0.001)">
      <path id="Path_229" data-name="Path 229" d="M30.018,27.955c-4.9,4.032-8.863,4.016-13.923,0-4.193,3.317-8.41,3.832-12.014,1.47A8.557,8.557,0,0,1,4.4,14.7,12.144,12.144,0,0,0,9.9,8.449c2.546-5.832,7.486-8.4,13.7-8.45a14.123,14.123,0,0,1,13.388,8.94,10.485,10.485,0,0,0,4.868,5.786,8.512,8.512,0,0,1,2.9,11.942,9.187,9.187,0,0,1-12.437,2.967C31.539,29.168,30.84,28.565,30.018,27.955Z" transform="translate(-0.041 0.001)" fill="#ff783d"/>
      <path id="Path_230" data-name="Path 230" d="M46.873,112.06c2.645,2.761,5.778,3.4,9.553,2.811-.64,3.858-1.229,7.5-1.845,11.117-.535,3.189-1.106,6.372-1.657,9.561-.485,2.814-1.73,3.923-4.552,3.931q-8.662.027-17.329,0c-2.678,0-3.893-.983-4.362-3.58-1.245-6.916-2.434-13.843-3.682-21.053,3.732.592,7.128.19,9.31-2.2a55.73,55.73,0,0,0,7.5,2.345C42.519,115.444,44.822,114.031,46.873,112.06ZM31.48,132.538h.029c-.343-3.13-.637-6.268-1.071-9.385-.075-.536-.755-.972-1.154-1.454-.319.383-.937.8-.9,1.138q.514,5.644,1.245,11.264c.054.4.685.726,1.047,1.071a6.772,6.772,0,0,0,.959-1.411C31.758,133.424,31.541,132.953,31.48,132.538ZM51.917,123.2l-1-1.307c-.415.49-1.1.934-1.2,1.483q-.9,4.876-1.518,9.8c-.067.517.49,1.114.758,1.673.439-.442,1.173-.827,1.269-1.339C50.83,130.267,51.3,126.992,51.917,123.2Zm-11.246,4.913c0-1.607.1-3.237-.059-4.836-.048-.493-.79-.921-1.213-1.379-.327.474-.921.94-.932,1.419q-.1,4.841.046,9.679c.016.471.621.926.953,1.387.4-.477,1.1-.924,1.149-1.435C40.776,131.338,40.672,129.716,40.672,128.109Z" transform="translate(-16.853 -82.055)" fill="#ff783d"/>
    </g>
  </g>
</svg>
