<svg xmlns="http://www.w3.org/2000/svg" width="50.001" height="37.473" viewBox="0 0 50.001 37.473">
  <g id="Layer_2" data-name="Layer 2" transform="translate(0 0.003)">
    <g id="ICON_PACK_VOL._1" data-name="ICON PACK VOL. 1" transform="translate(0 -0.003)">
      <path id="Path_220" data-name="Path 220" d="M15.65,16.067a10.754,10.754,0,0,1,.5-3.483A14.5,14.5,0,0,1,20.893,5.7,24.427,24.427,0,0,1,32.079.562a28.793,28.793,0,0,1,9.6-.3A25.206,25.206,0,0,1,54.221,5.34a14.441,14.441,0,0,1,5.32,7.755,10.346,10.346,0,0,1,.368,2.972ZM25.884,9.928a1.287,1.287,0,1,0-1.294,1.281A1.287,1.287,0,0,0,25.884,9.928Zm8.79,0a1.287,1.287,0,1,0-1.287,1.287A1.287,1.287,0,0,0,34.674,9.928Zm8.788,0a1.292,1.292,0,1,0-1.292,1.292,1.292,1.292,0,0,0,1.292-1.292Zm8.787,0a1.287,1.287,0,1,0-1.287,1.287A1.287,1.287,0,0,0,52.249,9.928ZM30.279,5.8a1.287,1.287,0,1,0-1.287,1.287A1.287,1.287,0,0,0,30.279,5.8Zm17.577.02a1.287,1.287,0,1,0-1.287,1.287A1.287,1.287,0,0,0,47.856,5.822Zm-8.79,0a1.287,1.287,0,1,0-1.287,1.287A1.287,1.287,0,0,0,39.065,5.822Z" transform="translate(-12.77 0.003)" fill="#ff783d"/>
      <path id="Path_221" data-name="Path 221" d="M54.764,131.132H59.85a24.619,24.619,0,0,1-.017,2.808,11.426,11.426,0,0,1-6.725,9.484,10.815,10.815,0,0,1-4.8,1.059q-10.568,0-21.134,0a11.573,11.573,0,0,1-11.442-9.9,28.913,28.913,0,0,1-.127-3.174,2.241,2.241,0,0,1,.024-.274H42.115v3.682a2.271,2.271,0,0,0,2.286,2.358,2.3,2.3,0,0,0,2.266-2.356c.009-1.085,0-2.172,0-3.257v-.427h3.5c0,.285-.009.568,0,.853a2.3,2.3,0,0,0,2.117,2.229,2.256,2.256,0,0,0,2.372-1.756,9.307,9.307,0,0,0,.1-1.324Z" transform="translate(-12.739 -107.015)" fill="#ff783d"/>
      <path id="Path_222" data-name="Path 222" d="M25.025,96.976H47.672A2.253,2.253,0,0,1,50,99.283a2.277,2.277,0,0,1-2.155,2.223H2.512a2.375,2.375,0,0,1-1.905-.752A2.154,2.154,0,0,1,.228,98.29,2.133,2.133,0,0,1,2.3,96.976Q13.664,96.964,25.025,96.976Z" transform="translate(0 -79.137)" fill="#ff783d"/>
    </g>
  </g>
</svg>
