<svg id="Layer_2" data-name="Layer 2" xmlns="http://www.w3.org/2000/svg" width="50.24" height="52.021" viewBox="0 0 50.24 52.021">
  <g id="ICON_PACK_VOL._1" data-name="ICON PACK VOL. 1">
    <path id="Path_223" data-name="Path 223" d="M0,69.447C5.7,53.6,11.347,37.938,16.974,22.29c9.485,3.184,24.843,17.238,28.5,26.071Zm14.218-33.46a5.638,5.638,0,1,0,5.619-5.619A5.638,5.638,0,0,0,14.218,35.987Zm12.874,18.4a5.577,5.577,0,1,0-5.556-5.577,5.577,5.577,0,0,0,5.556,5.577Zm-9.839.3a4.582,4.582,0,0,0-4.467-4.7,4.639,4.639,0,0,0-4.8,4.571,4.7,4.7,0,0,0,4.534,4.685,4.641,4.641,0,0,0,4.729-4.554Z" transform="translate(0 -17.426)" fill="#ff783d"/>
    <path id="Path_224" data-name="Path 224" d="M78.67,3.055,79.722,0a74.463,74.463,0,0,1,32.022,29.259l-2.968,1.309A70.617,70.617,0,0,0,78.67,3.055Z" transform="translate(-61.504)" fill="#ff783d"/>
    <path id="Path_225" data-name="Path 225" d="M76.286,66.48a4.091,4.091,0,1,1-4.107,4.041A4.091,4.091,0,0,1,76.286,66.48Z" transform="translate(-56.429 -51.973)" fill="#ff783d"/>
    <path id="Path_226" data-name="Path 226" d="M113.924,129.506a3.974,3.974,0,1,1-1.167-2.826A4,4,0,0,1,113.924,129.506Z" transform="translate(-82.807 -98.13)" fill="#ff783d"/>
    <path id="Path_227" data-name="Path 227" d="M46.836,162.372a2.987,2.987,0,0,1-3-3.129,3.033,3.033,0,0,1,3.127-3.018,3.092,3.092,0,0,1,3.016,3.151,3.037,3.037,0,0,1-3.144,3Z" transform="translate(-34.27 -122.134)" fill="#ff783d"/>
  </g>
</svg>
