<svg id="Layer_2" data-name="Layer 2" xmlns="http://www.w3.org/2000/svg" width="29.434" height="60.966" viewBox="0 0 29.434 60.966">
  <g id="ICON_PACK_VOL._1" data-name="ICON PACK VOL. 1">
    <path id="Path_211" data-name="Path 211" d="M32.84,144.05H16.386c-1.2-12.254-2.4-24.493-3.606-36.79H36.453C35.249,119.53,34.048,131.753,32.84,144.05Z" transform="translate(-9.9 -83.085)" fill="#ff783d"/>
    <path id="Path_212" data-name="Path 212" d="M0,92.931c.266-.9.485-1.758.789-2.583.065-.178.451-.338.676-.343,1.6-.029,3.207-.016,4.81-.016H28.546c.3.974.584,1.929.888,2.93Z" transform="translate(0 -69.704)" fill="#ff783d"/>
    <path id="Path_213" data-name="Path 213" d="M33.444,22.16l.708,1.594a3.257,3.257,0,0,0-.421,1.01c-.027,3.155-.018,6.322-.016,9.482,0,.144.02.289.038.512h8.416v1.864H23.22V34.8h8.47V24.457C31.688,22.757,31.7,22.739,33.444,22.16Z" transform="translate(-17.986 -17.165)" fill="#ff783d"/>
    <path id="Path_214" data-name="Path 214" d="M88.12,5.055,87.3,3.18,94.914,0c.273.649.518,1.228.793,1.877Z" transform="translate(-67.624)" fill="#ff783d"/>
    <path id="Path_215" data-name="Path 215" d="M80.492,18.028l-.8-1.887.845-.352.8,1.83Z" transform="translate(-61.729 -12.231)" fill="#ff783d"/>
    <path id="Path_216" data-name="Path 216" d="M72.42,19.318,73.168,19c.27.62.53,1.215.807,1.846l-.737.34C72.963,20.555,72.709,19.974,72.42,19.318Z" transform="translate(-56.097 -14.718)" fill="#ff783d"/>
  </g>
</svg>
