<svg xmlns="http://www.w3.org/2000/svg" width="50" height="50" viewBox="0 0 50 50">
  <g id="Layer_2" data-name="Layer 2" transform="translate(-0.002)">
    <g id="ICON_PACK_VOL._1" data-name="ICON PACK VOL. 1" transform="translate(0.002 0)">
      <path id="Path_228" data-name="Path 228" d="M44.786.13a13.154,13.154,0,0,1-.934,1.2c-1.848,1.914-3.728,3.8-5.578,5.7C37.249,8.1,36.25,9.179,35.259,10.267a1.9,1.9,0,0,0-.342.64.5.5,0,0,0,.017.429.46.46,0,0,0,.429,0,13.651,13.651,0,0,0,1.8-1.276c2.586-2.407,5.129-4.853,7.706-7.267a18.76,18.76,0,0,1,1.49-1.142l.143.132a2.6,2.6,0,0,1-.294.529c-.789.88-1.576,1.764-2.391,2.616-2.141,2.215-4.307,4.408-6.437,6.628a4.465,4.465,0,0,0-.662,1.048,1.188,1.188,0,0,0-.022.482c.184-.016.4.029.528-.056a10.549,10.549,0,0,0,1.6-1.119C41.293,9.6,43.732,7.249,46.2,4.929c.515-.484,1.1-.9,1.655-1.335a.548.548,0,0,1,.4-.074A2.068,2.068,0,0,1,48,4.009c-1.013,1.108-2.023,2.221-3.064,3.3-1.926,2-3.879,3.969-5.81,5.972a4.511,4.511,0,0,0-.68.944c-.083.15-.02.379-.024.572.184,0,.436.056.563-.036A21.44,21.44,0,0,0,41.15,13.1c2.424-2.259,4.806-4.564,7.22-6.832a18.126,18.126,0,0,1,1.471-1.146L50,5.27a7.381,7.381,0,0,1-.62.864Q47.19,8.42,44.968,10.68q-1.788,1.826-3.586,3.637c-1.056,1.066-2.087,2.165-3.18,3.188a9.637,9.637,0,0,1-4.611,2.333c-.368.085-.736.18-1.1.263a6.458,6.458,0,0,0-3.055,1.588c-1.212,1.158-2.455,2.284-3.724,3.46.76.709,1.455,1.378,2.174,2.021C31.5,30.4,35.1,33.644,38.746,36.837c2.7,2.365,5.462,4.671,8.217,6.978a3.545,3.545,0,0,1,1.427,2.273,3.194,3.194,0,0,1-.92,2.67,3.332,3.332,0,0,1-3.914.962A3.566,3.566,0,0,1,42.1,48.472c-.736-.987-1.552-1.923-2.347-2.872-2.994-3.563-5.927-7.171-8.991-10.671-1.968-2.246-4.125-4.33-6.2-6.484-.311-.323-.633-.631-.988-.985-.463.493-.92.951-1.343,1.443-3.264,3.745-6.553,7.473-9.773,11.256-2.093,2.459-4.083,5.006-6.126,7.509a3.239,3.239,0,0,1-3.973,1.2,3.667,3.667,0,0,1-2.3-2.7,3.1,3.1,0,0,1,1.3-3.136c4.758-3.8,9.532-7.577,14.255-11.418,2.146-1.745,4.191-3.608,6.281-5.421a2.684,2.684,0,0,0,.184-.2,3.147,3.147,0,0,0-3.323-.873,1.09,1.09,0,0,1-1.149-.3c-2.418-2.43-4.874-4.826-7.23-7.31a60.1,60.1,0,0,1-5.924-7.157,19.709,19.709,0,0,1-2.529-4.6,4.125,4.125,0,0,1-.208-2.69,1.187,1.187,0,0,1,.326-.5c.246-.224.478-.1.686.1q1.549,1.521,3.1,3.038,2.821,2.768,5.644,5.528,5.628,5.513,11.235,11.032c.552.541,1.069,1.082,1.707,1.746l1.92-2.008c.478-.5.932-1.032,1.436-1.508a7.167,7.167,0,0,0,2-4.112,9.19,9.19,0,0,1,2.17-4.579c.872-.96,1.867-1.815,2.808-2.706Q38.349,5.678,41.95,2.25c.671-.635,1.378-1.238,2.082-1.84A4.4,4.4,0,0,1,44.666,0Z" transform="translate(-0.002 0)" fill="#ff783d"/>
    </g>
  </g>
</svg>
